<?xml version="1.0" encoding="UTF-8" standalone="no"?>
<svg
   xmlns:dc="http://purl.org/dc/elements/1.1/"
   xmlns:cc="http://creativecommons.org/ns#"
   xmlns:rdf="http://www.w3.org/1999/02/22-rdf-syntax-ns#"
   xmlns:svg="http://www.w3.org/2000/svg"
   xmlns="http://www.w3.org/2000/svg"
   xmlns:xlink="http://www.w3.org/1999/xlink"
   xmlns:sodipodi="http://sodipodi.sourceforge.net/DTD/sodipodi-0.dtd"
   xmlns:inkscape="http://www.inkscape.org/namespaces/inkscape"
   id="svg8"
   version="1.1"
   viewBox="0 0 387.29059 54.924999"
   height="54.924999mm"
   width="387.29059mm"
   sodipodi:docname="continuum.svg"
   inkscape:version="0.92.4 (5da689c313, 2019-01-14)">
  <sodipodi:namedview
     pagecolor="#ffffff"
     bordercolor="#666666"
     borderopacity="1"
     objecttolerance="10"
     gridtolerance="10"
     guidetolerance="10"
     inkscape:pageopacity="0"
     inkscape:pageshadow="2"
     inkscape:window-width="1794"
     inkscape:window-height="1097"
     id="namedview22"
     showgrid="false"
     inkscape:zoom="0.81542305"
     inkscape:cx="661.56192"
     inkscape:cy="64.296624"
     inkscape:window-x="0"
     inkscape:window-y="0"
     inkscape:window-maximized="0"
     inkscape:current-layer="text12" />
  <metadata
     id="metadata5">
    <rdf:RDF>
      <cc:Work
         rdf:about="">
        <dc:format>image/svg+xml</dc:format>
        <dc:type
           rdf:resource="http://purl.org/dc/dcmitype/StillImage" />
        <dc:title />
      </cc:Work>
    </rdf:RDF>
  </metadata>
  <g
     transform="translate(-10.450533,-112.24981)"
     id="layer1">
    <g
       id="text12"
       style="font-style:normal;font-weight:normal;font-size:10.58333302px;line-height:1.25;font-family:sans-serif;letter-spacing:0px;word-spacing:0px;fill:url(#linearGradient849);fill-opacity:1.0;stroke:none;stroke-width:0.26458332"
       aria-label="⋈ C O N T I N U U M">
      <path
         id="path822"
         style="font-size:50.79999924px;fill:#ff55ff;fill-opacity:1;stroke-width:0.26458332"
         d="m 20.450533,157.17481 v -34.925 l 20.017383,14.68437 20.017382,-14.68437 v 34.925 L 40.467916,142.54004 Z m 16.172656,-17.4377 -11.955859,-8.68164 v 17.36328 z m 7.689453,0 11.955859,8.68164 v -17.61132 z" />
      <path
         id="path824"
         style="font-size:35.27777863px;text-align:start;letter-spacing:0px;text-anchor:start;fill:#e363ff;fill-opacity:1"
         d="m 104.76098,128.90021 v 3.66903 q -1.757,-1.63642 -3.75516,-2.44602 -1.980927,-0.8096 -4.220239,-0.8096 -4.409722,0 -6.752387,2.7044 -2.342665,2.68717 -2.342665,7.78592 0,5.08151 2.342665,7.78591 2.342665,2.68718 6.752387,2.68718 2.239312,0 4.220239,-0.8096 1.99816,-0.8096 3.75516,-2.44602 v 3.63458 q -1.8259,1.24023 -3.87574,1.86035 -2.032601,0.62012 -4.306365,0.62012 -5.839437,0 -9.198405,-3.56568 -3.358968,-3.5829 -3.358968,-9.76684 0,-6.20118 3.358968,-9.76685 3.358968,-3.5829 9.198405,-3.5829 2.308214,0 4.340825,0.62012 2.04983,0.60289 3.84128,1.8259 z" />
      <path
         id="path826"
         style="font-size:35.27777863px;text-align:start;letter-spacing:0px;text-anchor:start;fill:#d56aff;fill-opacity:1"
         d="m 131.83943,129.27917 q -3.78961,0 -6.02892,2.82498 -2.22209,2.82498 -2.22209,7.69979 0,4.85758 2.22209,7.68256 2.23931,2.82498 6.02892,2.82498 3.7896,0 5.99446,-2.82498 2.22209,-2.82498 2.22209,-7.68256 0,-4.87481 -2.22209,-7.69979 -2.20486,-2.82498 -5.99446,-2.82498 z m 0,-2.82498 q 5.4088,0 8.64719,3.63458 3.23839,3.61735 3.23839,9.71517 0,6.08059 -3.23839,9.71517 -3.23839,3.61735 -8.64719,3.61735 -5.42603,0 -8.68164,-3.61735 -3.23839,-3.61735 -3.23839,-9.71517 0,-6.09782 3.23839,-9.71517 3.25561,-3.63458 8.68164,-3.63458 z" />
      <path
         id="path828"
         style="font-size:35.27777863px;text-align:start;letter-spacing:0px;text-anchor:start;fill:#d56aff;fill-opacity:1"
         d="m 160.39927,126.91928 h 4.68533 l 11.40327,21.51462 v -21.51462 h 3.37619 v 25.71764 h -4.68533 L 163.77546,131.1223 v 21.51462 h -3.37619 z" />
      <path
         id="path830"
         style="font-size:35.27777863px;text-align:start;letter-spacing:0px;text-anchor:start;fill:#be76ff;fill-opacity:1"
         d="m 194.45403,126.91928 h 21.75578 v 2.92833 h -9.1295 v 22.78931 h -3.49677 v -22.78931 h -9.12951 z" />
      <path
         id="path832"
         style="font-size:35.27777863px;text-align:start;letter-spacing:0px;text-anchor:start;fill:#b47bff;fill-opacity:1"
         d="m 230.81703,126.91928 h 3.47954 v 25.71764 h -3.47954 z" />
      <path
         id="path834"
         style="font-size:35.27777863px;text-align:start;letter-spacing:0px;text-anchor:start;fill:#ac7eff;fill-opacity:1"
         d="m 252.45222,126.91928 h 4.68533 l 11.40327,21.51462 v -21.51462 h 3.37619 v 25.71764 h -4.68533 L 255.82841,131.1223 v 21.51462 h -3.37619 z" />
      <path
         id="path836"
         style="font-size:35.27777863px;text-align:start;letter-spacing:0px;text-anchor:start;fill:#9e85ff;fill-opacity:1"
         d="m 289.67647,126.91928 h 3.49677 v 15.62351 q 0,4.13411 1.49862,5.96001 1.49862,1.80868 4.85758,1.80868 3.34175,0 4.84036,-1.80868 1.49862,-1.8259 1.49862,-5.96001 v -15.62351 h 3.49677 v 16.05414 q 0,5.02984 -2.49769,7.59644 -2.48047,2.5666 -7.33806,2.5666 -4.87481,0 -7.3725,-2.5666 -2.48047,-2.5666 -2.48047,-7.59644 z" />
      <path
         id="path838"
         style="font-size:35.27777863px;text-align:start;letter-spacing:0px;text-anchor:start;fill:#8c8eff;fill-opacity:1"
         d="m 326.74571,126.91928 h 3.49678 v 15.62351 q 0,4.13411 1.49861,5.96001 1.49862,1.80868 4.85759,1.80868 3.34174,0 4.84036,-1.80868 1.49861,-1.8259 1.49861,-5.96001 v -15.62351 h 3.49678 v 16.05414 q 0,5.02984 -2.4977,7.59644 -2.48047,2.5666 -7.33805,2.5666 -4.87481,0 -7.37251,-2.5666 -2.48047,-2.5666 -2.48047,-7.59644 z" />
      <path
         id="path840"
         style="font-size:35.27777863px;text-align:start;letter-spacing:0px;text-anchor:start;fill:#8888ff;fill-opacity:1"
         d="m 364.21111,126.91928 h 5.18487 l 6.56291,17.50108 6.59736,-17.50108 h 5.18487 v 25.71764 h -3.39342 v -22.5826 l -6.63181,17.63888 h -3.49677 l -6.63181,-17.63888 v 22.5826 h -3.3762 z" />
    </g>
  </g>
</svg>
