<?xml version="1.0" encoding="UTF-8" standalone="no"?>
<!-- Created with Inkscape (http://www.inkscape.org/) -->

<svg
   xmlns:dc="http://purl.org/dc/elements/1.1/"
   xmlns:cc="http://creativecommons.org/ns#"
   xmlns:rdf="http://www.w3.org/1999/02/22-rdf-syntax-ns#"
   xmlns:svg="http://www.w3.org/2000/svg"
   xmlns="http://www.w3.org/2000/svg"
   xmlns:xlink="http://www.w3.org/1999/xlink"
   xmlns:sodipodi="http://sodipodi.sourceforge.net/DTD/sodipodi-0.dtd"
   xmlns:inkscape="http://www.inkscape.org/namespaces/inkscape"
   width="177.27757mm"
   height="54.924999mm"
   viewBox="0 0 177.27757 54.924999"
   version="1.1"
   id="svg8"
   inkscape:version="0.92.4 (5da689c313, 2019-01-14)"
   sodipodi:docname="ctm.svg">
  <defs
     id="defs2">
    <linearGradient
       inkscape:collect="always"
       id="linearGradient841">
      <stop
         style="stop-color:#ff55ff;stop-opacity:1;"
         offset="0"
         id="stop837" />
      <stop
         style="stop-color:#7d96ff;stop-opacity:1"
         offset="1"
         id="stop839" />
    </linearGradient>
    <linearGradient
       inkscape:collect="always"
       xlink:href="#linearGradient841"
       id="linearGradient843"
       x1="20.450533"
       y1="139.71231"
       x2="216.42136"
       y2="139.17776"
       gradientUnits="userSpaceOnUse" />
  </defs>
  <sodipodi:namedview
     id="base"
     pagecolor="#ffffff"
     bordercolor="#666666"
     borderopacity="1.0"
     inkscape:pageopacity="0.0"
     inkscape:pageshadow="2"
     inkscape:zoom="0.98994949"
     inkscape:cx="320.52443"
     inkscape:cy="170.65195"
     inkscape:document-units="mm"
     inkscape:current-layer="text12"
     showgrid="false"
     fit-margin-top="10"
     fit-margin-left="10"
     fit-margin-right="10"
     fit-margin-bottom="10"
     inkscape:window-width="2256"
     inkscape:window-height="1410"
     inkscape:window-x="-11"
     inkscape:window-y="-11"
     inkscape:window-maximized="1" />
  <metadata
     id="metadata5">
    <rdf:RDF>
      <cc:Work
         rdf:about="">
        <dc:format>image/svg+xml</dc:format>
        <dc:type
           rdf:resource="http://purl.org/dc/dcmitype/StillImage" />
        <dc:title />
      </cc:Work>
    </rdf:RDF>
  </metadata>
  <g
     inkscape:label="Layer 1"
     inkscape:groupmode="layer"
     id="layer1"
     transform="translate(-10.450533,-112.24981)">
    <g
       aria-label="⋈ C T M"
       style="font-style:normal;font-weight:normal;font-size:10.58333302px;line-height:1.25;font-family:sans-serif;letter-spacing:0px;word-spacing:0px;fill:url(#linearGradient843);fill-opacity:1;stroke:none;stroke-width:0.26458332"
       id="text12">
      <path
         d="m 20.450533,157.17481 v -34.925 l 20.017383,14.68437 20.017382,-14.68437 v 34.925 L 40.467916,142.54004 Z m 16.172656,-17.4377 -11.955859,-8.68164 v 17.36328 z m 7.689453,0 11.955859,8.68164 v -17.61132 z"
         style="font-size:50.79999924px;fill:#ff55ff;fill-opacity:1;stroke-width:0.26458332"
         id="path822" />
      <path
         d="m 104.76098,128.90021 v 3.66903 q -1.757,-1.63642 -3.75516,-2.44602 -1.980927,-0.8096 -4.220239,-0.8096 -4.409722,0 -6.752387,2.7044 -2.342665,2.68717 -2.342665,7.78592 0,5.08151 2.342665,7.78591 2.342665,2.68718 6.752387,2.68718 2.239312,0 4.220239,-0.8096 1.99816,-0.8096 3.75516,-2.44602 v 3.63458 q -1.8259,1.24023 -3.87574,1.86035 -2.032601,0.62012 -4.306365,0.62012 -5.839437,0 -9.198405,-3.56568 -3.358968,-3.5829 -3.358968,-9.76684 0,-6.20118 3.358968,-9.76685 3.358968,-3.5829 9.198405,-3.5829 2.308214,0 4.340825,0.62012 2.04983,0.60289 3.84128,1.8259 z"
         style="font-size:35.27777863px;text-align:start;letter-spacing:0px;text-anchor:start;fill:#cc6eff;fill-opacity:1"
         id="path824" />
      <path
         d="m 117.83512,126.91928 h 21.75577 v 2.92833 h -9.1295 v 22.78931 h -3.49677 v -22.78931 h -9.1295 z"
         style="font-size:35.27777863px;text-align:start;letter-spacing:0px;text-anchor:start;fill:#b779ff;fill-opacity:1"
         id="path826" />
      <path
         d="m 154.1981,126.91928 h 5.18487 l 6.5629,17.50108 6.59736,-17.50108 h 5.18487 v 25.71764 h -3.39342 v -22.5826 l -6.63181,17.63888 h -3.49677 l -6.63181,-17.63888 v 22.5826 h -3.37619 z"
         style="font-size:35.27777863px;text-align:start;letter-spacing:0px;text-anchor:start;fill:#9b8cff;fill-opacity:1"
         id="path828" />
    </g>
  </g>
</svg>
